<?xml version="1.0"?><svg width="143" height="46" viewBox="0 0 174 56" fill="none" xmlns="http://www.w3.org/2000/svg">
<g clip-path="url(#clip0_135:5378)">
<path fill-rule="evenodd" clip-rule="evenodd" d="M40.7549 28.6403L40.7299 21.1099C40.7299 20.3463 40.1071 19.7317 39.3411 19.7317C39.0547 19.7317 38.7868 19.8187 38.5688 19.9677L32.1231 23.7111C31.4629 24.096 31.245 24.9403 31.6248 25.5921C31.7557 25.8156 31.9362 25.9832 32.148 26.1012L38.6872 29.8321C39.3473 30.2109 40.1944 29.9811 40.5742 29.3231C40.6926 29.112 40.7486 28.87 40.7549 28.6403Z" fill="white"/>
<path fill-rule="evenodd" clip-rule="evenodd" d="M13.1479 37.4616L21.8171 42.4093C22.6952 42.9122 23.8099 42.608 24.3144 41.7327C24.5013 41.4036 24.576 41.0436 24.5511 40.6897L24.5137 30.8624C24.5074 29.8567 23.6854 29.0434 22.6765 29.0496C22.334 29.0496 22.0163 29.1428 21.7485 29.3103L13.1417 34.3078C12.2698 34.8107 11.9708 35.9281 12.4815 36.7973C12.6497 37.0828 12.8801 37.3063 13.1479 37.4616Z" fill="white"/>
<path fill-rule="evenodd" clip-rule="evenodd" d="M22.0274 7.1975L12.9411 12.4681C12.0193 13.002 11.7079 14.1753 12.2435 15.0941C12.4428 15.4356 12.7355 15.6963 13.0718 15.8577L22.0773 20.9979C22.999 21.5194 24.176 21.2028 24.6992 20.284C24.8736 19.9736 24.9545 19.6384 24.9545 19.3031L24.9172 8.84879C24.9172 7.79347 24.0515 6.93677 22.9927 6.93677C22.6377 6.94297 22.3077 7.03609 22.0274 7.1975Z" fill="white"/>
<path fill-rule="evenodd" clip-rule="evenodd" d="M44.2794 8.47623L31.3567 1.10105C30.0489 0.356081 28.3798 0.809269 27.6325 2.11296C27.3522 2.6034 27.2401 3.14351 27.2775 3.66498L27.3336 18.3222C27.3397 19.8184 28.5667 21.0289 30.0675 21.0227C30.572 21.0227 31.0453 20.8799 31.4501 20.6379L44.2857 13.1882C45.5873 12.437 46.0295 10.7732 45.2759 9.47572C45.0268 9.0474 44.678 8.71216 44.2794 8.47623Z" fill="white"/>
<path fill-rule="evenodd" clip-rule="evenodd" d="M0 16.193L0.0622782 33.5755C0.0685061 35.3324 1.50713 36.7541 3.2696 36.7478C3.92976 36.7478 4.54631 36.543 5.05699 36.1953L19.9352 27.5599C21.4549 26.6722 21.9655 24.7291 21.0812 23.2143C20.7823 22.7052 20.365 22.3079 19.8792 22.041L4.78297 13.4242C3.25715 12.5488 1.30785 13.0766 0.429719 14.5975C0.137012 15.1004 0.00622782 15.6529 0.00622782 16.193H0Z" fill="white"/>
<path fill-rule="evenodd" clip-rule="evenodd" d="M32.1847 54.9003L49.2738 44.9861C51.0052 43.9803 51.5906 41.7702 50.5817 40.0444C50.2018 39.3988 49.6538 38.9084 49.0247 38.6104L32.0789 28.9382C30.3475 27.9511 28.1366 28.5533 27.1464 30.2791C26.8101 30.8627 26.6606 31.4959 26.6731 32.1229L26.7416 51.7839C26.7478 53.7766 28.3671 55.3845 30.3662 55.3783C31.0263 55.3783 31.6429 55.1982 32.1785 54.8879L32.1847 54.9003Z" fill="white"/>
<path d="M50.7817 17.3474H54.2008L56.3806 26.6223C56.4864 27.0319 56.5985 27.7335 56.7356 28.733H56.8476C56.9784 27.7397 57.0968 27.0319 57.2026 26.6223L59.4321 17.3474H63.2934L65.498 26.6223C65.5853 27.001 65.7035 27.7087 65.853 28.733H65.9651C66.0835 27.7956 66.2018 27.094 66.3201 26.6223L68.5684 17.3474H71.5203L67.5096 32.4268H64.047L61.5559 22.8229C61.425 22.3387 61.3005 21.631 61.1822 20.6936H61.095C60.9455 21.7055 60.8209 22.4132 60.7213 22.8229L58.2738 32.4268H54.8111L50.7817 17.3474Z" fill="white"/>
<path d="M76.9824 30.2294C77.9664 30.2294 78.6826 29.95 79.1248 29.3851C79.5669 28.8202 79.7849 27.9697 79.7849 26.8273V26.4735C79.7849 25.3312 79.5607 24.4745 79.1248 23.9158C78.6826 23.3508 77.9726 23.0714 76.9824 23.0714C75.9984 23.0714 75.2884 23.3508 74.8525 23.9158C74.4165 24.4807 74.1986 25.3312 74.1986 26.4735V26.8273C74.1986 27.9697 74.4165 28.8264 74.8525 29.3851C75.2884 29.95 75.9984 30.2294 76.9824 30.2294ZM76.9824 32.694C74.9957 32.694 73.5197 32.2035 72.5482 31.2227C71.5766 30.2418 71.0908 28.7146 71.0908 26.6536C71.0908 24.5862 71.5766 23.0652 72.5482 22.0844C73.5197 21.1035 74.9957 20.613 76.9824 20.613C78.9691 20.613 80.4513 21.1035 81.4291 22.0844C82.4068 23.0652 82.8927 24.5924 82.8927 26.6536C82.8927 28.7208 82.4006 30.2418 81.4291 31.2227C80.445 32.2035 78.9628 32.694 76.9824 32.694Z" fill="white"/>
<path d="M84.5557 20.8677H87.1341L87.3768 22.7363H87.5329C87.7815 22.0782 88.1056 21.5567 88.5044 21.178C88.9024 20.7994 89.4259 20.6069 90.0673 20.6069C90.4907 20.6069 90.8768 20.6752 91.2128 20.8056V23.6178H90.3787C89.3945 23.6178 88.6784 23.8848 88.2363 24.4187C87.7942 24.9525 87.5762 25.7658 87.5762 26.846V32.4271H84.5557V20.8677Z" fill="white"/>
<path d="M92.5767 17.3474H95.5973V25.4614L99.4341 20.8674H102.921L99.0854 25.3061L103.139 32.433H99.6768L97.1423 27.5286L95.5973 29.0248V32.433H92.5767V17.3474Z" fill="white"/>
<path d="M129.538 30.2294C130.522 30.2294 131.238 29.95 131.68 29.3851C132.122 28.8202 132.341 27.9697 132.341 26.8273V26.4735C132.341 25.3312 132.117 24.4745 131.68 23.9158C131.238 23.3508 130.528 23.0714 129.538 23.0714C128.555 23.0714 127.844 23.3508 127.408 23.9158C126.972 24.4807 126.754 25.3312 126.754 26.4735V26.8273C126.754 27.9697 126.972 28.8264 127.408 29.3851C127.844 29.95 128.555 30.2294 129.538 30.2294ZM129.538 32.694C127.552 32.694 126.075 32.2035 125.104 31.2227C124.132 30.2418 123.647 28.7146 123.647 26.6536C123.647 24.5862 124.132 23.0652 125.104 22.0844C126.075 21.1035 127.552 20.613 129.538 20.613C131.525 20.613 133.007 21.1035 133.985 22.0844C134.962 23.0652 135.449 24.5924 135.449 26.6536C135.449 28.7208 134.956 30.2418 133.985 31.2227C133.001 32.2035 131.518 32.694 129.538 32.694Z" fill="white"/>
<path d="M140.63 32.6943C139.54 32.6943 138.761 32.4025 138.295 31.8127C137.821 31.2292 137.59 30.4842 137.59 29.5903V23.3325H136.202V20.8678H137.659L138.164 17.2485H140.611V20.8678H142.617V23.3325H140.611V29.2923C140.611 29.9255 140.929 30.2359 141.558 30.2359H142.617V32.3466C142.367 32.4335 142.056 32.5142 141.676 32.5887C141.302 32.657 140.954 32.6943 140.63 32.6943Z" fill="white"/>
<path d="M155.112 30.2294C156.096 30.2294 156.812 29.95 157.254 29.3851C157.696 28.8202 157.914 27.9697 157.914 26.8273V26.4735C157.914 25.3312 157.69 24.4745 157.254 23.9158C156.812 23.3508 156.102 23.0714 155.112 23.0714C154.127 23.0714 153.418 23.3508 152.982 23.9158C152.546 24.4807 152.328 25.3312 152.328 26.4735V26.8273C152.328 27.9697 152.546 28.8264 152.982 29.3851C153.418 29.95 154.127 30.2294 155.112 30.2294ZM155.112 32.694C153.125 32.694 151.649 32.2035 150.677 31.2227C149.706 30.2418 149.22 28.7146 149.22 26.6536C149.22 24.5862 149.706 23.0652 150.677 22.0844C151.649 21.1035 153.125 20.613 155.112 20.613C157.098 20.613 158.58 21.1035 159.559 22.0844C160.536 23.0652 161.022 24.5924 161.022 26.6536C161.022 28.7208 160.53 30.2418 159.559 31.2227C158.574 32.2035 157.092 32.694 155.112 32.694Z" fill="white"/>
<path d="M162.678 20.8675H165.256L165.481 22.3823H165.636C166.576 21.1966 167.784 20.6006 169.255 20.6006C170.444 20.6006 171.385 20.9234 172.063 21.569C172.748 22.2147 173.091 23.2452 173.091 24.6669V32.4269H170.07V25.3063C170.07 24.5862 169.902 24.0709 169.559 23.748C169.223 23.4253 168.725 23.2638 168.058 23.2638C167.38 23.2638 166.82 23.4998 166.371 23.9778C165.923 24.4558 165.699 25.0455 165.699 25.7471V32.4269H162.678V20.8675Z" fill="white"/>
<path d="M102.48 32.4334H105.899L108.078 23.1585C108.184 22.7488 108.296 22.0473 108.434 21.0478H108.546C108.695 22.0721 108.807 22.7736 108.895 23.1585L111.099 32.4334H114.96L117.19 23.1585C117.289 22.7488 117.408 22.0473 117.545 21.0478H117.657C117.776 21.9852 117.894 22.6867 118.012 23.1585L120.26 32.4334H123.213L119.202 17.354H117.545H116.131L113.683 26.9578C113.584 27.3676 113.459 28.0815 113.31 29.0934H113.223C113.105 28.156 112.98 27.4421 112.849 26.9578L110.358 17.354H108.552H106.497L102.48 32.4334Z" fill="white"/>
<path d="M147.531 20.8677H144.511V32.4333H147.531V20.8677Z" fill="white"/>
<path fill-rule="evenodd" clip-rule="evenodd" d="M146.51 19.5825L148.061 16.9069C148.217 16.6337 148.123 16.2922 147.855 16.1308C147.756 16.075 147.644 16.0502 147.531 16.0563H144.473C144.162 16.0563 143.907 16.3109 143.907 16.6213C143.907 16.7268 143.938 16.8261 143.988 16.9069L145.532 19.5762C145.688 19.8494 146.037 19.9425 146.304 19.7811C146.392 19.7377 146.46 19.6632 146.51 19.5825Z" fill="white"/>
</g>
<defs>
<clipPath id="clip0_135:5378">
<rect width="173.091" height="56" fill="#fff"/>
</clipPath>
</defs>
</svg>